<svg xmlns="http://www.w3.org/2000/svg" width="420" height="420" viewBox="0 0 420 420">
  <defs>
    <radialGradient id="shadow" cx="50%" cy="75%" r="45%"><stop stop-color="#000" stop-opacity="0.45"/><stop offset="1" stop-color="#000" stop-opacity="0"/></radialGradient>
  </defs>
  <ellipse cx="210" cy="345" rx="150" ry="42" fill="url(#shadow)"/>
  <path d="M130 330c6-80 25-128 80-128s74 48 80 128z" fill="#c98f70" stroke="#2a1518" stroke-width="5"/>
  <circle cx="210" cy="148" r="78" fill="#c98f70" stroke="#2a1518" stroke-width="5"/>
  <path d="M138 133c16-72 128-90 150-2-30-28-115-28-150 2z" fill="#2f1b20"/>
  <circle cx="182" cy="150" r="8" fill="#1c1012"/><circle cx="238" cy="150" r="8" fill="#1c1012"/>
  <path d="M188 184q22 12 44 0" fill="none" stroke="#451f24" stroke-width="6" stroke-linecap="round"/>
  <path d="M170 226c32 18 56 18 82 0" fill="none" stroke="#6b3d37" stroke-width="6" stroke-linecap="round" opacity="0.35"/>
  
  <text x="210" y="398" text-anchor="middle" fill="#f2d6aa" font-size="28" font-family="sans-serif" font-weight="700">NORMAL</text>
</svg>
